<mxfile host="65bd71144e">
    <diagram id="bpbkTxAe3MsM5qXTKhsR" name="Page-1">
        <mxGraphModel dx="1506" dy="469" grid="1" gridSize="10" guides="1" tooltips="1" connect="1" arrows="1" fold="1" page="1" pageScale="1" pageWidth="1100" pageHeight="850" math="0" shadow="0">
            <root>
                <mxCell id="0"/>
                <mxCell id="1" parent="0"/>
                <mxCell id="134" value="&lt;font style=&quot;font-size: 30px;&quot;&gt;Requirement&lt;/font&gt;" style="text;html=1;align=center;verticalAlign=middle;resizable=1;points=[];autosize=1;strokeColor=#C73500;fillColor=#fa6800;fontSize=13;fontColor=#000000;movable=1;rotatable=1;deletable=1;editable=1;connectable=1;" parent="1" vertex="1">
                    <mxGeometry x="65.2" y="40" width="200" height="50" as="geometry"/>
                </mxCell>
                <mxCell id="152" value="" style="group;movable=1;resizable=1;rotatable=1;deletable=1;editable=1;connectable=1;" parent="1" vertex="1" connectable="0">
                    <mxGeometry x="53" y="190" width="994.8" height="274" as="geometry"/>
                </mxCell>
                <mxCell id="40" value="" style="group;movable=1;resizable=1;rotatable=1;deletable=1;editable=1;connectable=1;" parent="152" vertex="1" connectable="0">
                    <mxGeometry x="74.8" width="544.8" height="274" as="geometry"/>
                </mxCell>
                <mxCell id="2" value="&lt;&lt;abstract&gt;&gt;&#10;Shape" style="swimlane;fontStyle=1;align=center;verticalAlign=top;childLayout=stackLayout;horizontal=1;startSize=40;horizontalStack=0;resizeParent=1;resizeParentMax=0;resizeLast=0;collapsible=1;marginBottom=0;fillColor=#60a917;fontColor=#ffffff;strokeColor=#2D7600;movable=1;resizable=1;rotatable=1;deletable=1;editable=1;connectable=1;" parent="40" vertex="1">
                    <mxGeometry x="184.8" width="290" height="74" as="geometry"/>
                </mxCell>
                <mxCell id="4" value="" style="line;strokeWidth=1;fillColor=none;align=left;verticalAlign=middle;spacingTop=-1;spacingLeft=3;spacingRight=3;rotatable=1;labelPosition=right;points=[];portConstraint=eastwest;strokeColor=inherit;movable=1;resizable=1;deletable=1;editable=1;connectable=1;" parent="2" vertex="1">
                    <mxGeometry y="40" width="290" height="8" as="geometry"/>
                </mxCell>
                <mxCell id="5" value="+Draw():void" style="text;strokeColor=none;fillColor=none;align=center;verticalAlign=top;spacingLeft=4;spacingRight=4;overflow=hidden;rotatable=1;points=[[0,0.5],[1,0.5]];portConstraint=eastwest;movable=1;resizable=1;deletable=1;editable=1;connectable=1;" parent="2" vertex="1">
                    <mxGeometry y="48" width="290" height="26" as="geometry"/>
                </mxCell>
                <mxCell id="6" value="Rectangle" style="swimlane;fontStyle=1;align=center;verticalAlign=top;childLayout=stackLayout;horizontal=1;startSize=30;horizontalStack=0;resizeParent=1;resizeParentMax=0;resizeLast=0;collapsible=1;marginBottom=0;movable=1;resizable=1;rotatable=1;deletable=1;editable=1;connectable=1;" parent="40" vertex="1">
                    <mxGeometry x="104.80000000000001" y="210" width="130" height="64" as="geometry"/>
                </mxCell>
                <mxCell id="8" value="" style="line;strokeWidth=1;fillColor=none;align=left;verticalAlign=middle;spacingTop=-1;spacingLeft=3;spacingRight=3;rotatable=1;labelPosition=right;points=[];portConstraint=eastwest;strokeColor=inherit;movable=1;resizable=1;deletable=1;editable=1;connectable=1;" parent="6" vertex="1">
                    <mxGeometry y="30" width="130" height="8" as="geometry"/>
                </mxCell>
                <mxCell id="9" value="+Draw():void" style="text;strokeColor=none;fillColor=none;align=left;verticalAlign=top;spacingLeft=4;spacingRight=4;overflow=hidden;rotatable=1;points=[[0,0.5],[1,0.5]];portConstraint=eastwest;movable=1;resizable=1;deletable=1;editable=1;connectable=1;" parent="6" vertex="1">
                    <mxGeometry y="38" width="130" height="26" as="geometry"/>
                </mxCell>
                <mxCell id="10" value="Triangle" style="swimlane;fontStyle=1;align=center;verticalAlign=top;childLayout=stackLayout;horizontal=1;startSize=26;horizontalStack=0;resizeParent=1;resizeParentMax=0;resizeLast=0;collapsible=1;marginBottom=0;movable=1;resizable=1;rotatable=1;deletable=1;editable=1;connectable=1;" parent="40" vertex="1">
                    <mxGeometry x="264.8" y="210" width="120" height="60" as="geometry"/>
                </mxCell>
                <mxCell id="12" value="" style="line;strokeWidth=1;fillColor=none;align=left;verticalAlign=middle;spacingTop=-1;spacingLeft=3;spacingRight=3;rotatable=1;labelPosition=right;points=[];portConstraint=eastwest;strokeColor=inherit;movable=1;resizable=1;deletable=1;editable=1;connectable=1;" parent="10" vertex="1">
                    <mxGeometry y="26" width="120" height="8" as="geometry"/>
                </mxCell>
                <mxCell id="13" value="+Draw():void" style="text;strokeColor=none;fillColor=none;align=left;verticalAlign=top;spacingLeft=4;spacingRight=4;overflow=hidden;rotatable=1;points=[[0,0.5],[1,0.5]];portConstraint=eastwest;movable=1;resizable=1;deletable=1;editable=1;connectable=1;" parent="10" vertex="1">
                    <mxGeometry y="34" width="120" height="26" as="geometry"/>
                </mxCell>
                <mxCell id="14" value="TextShape" style="swimlane;fontStyle=1;align=center;verticalAlign=top;childLayout=stackLayout;horizontal=1;startSize=26;horizontalStack=0;resizeParent=1;resizeParentMax=0;resizeLast=0;collapsible=1;marginBottom=0;movable=1;resizable=1;rotatable=1;deletable=1;editable=1;connectable=1;" parent="40" vertex="1">
                    <mxGeometry x="424.8" y="210" width="120" height="60" as="geometry"/>
                </mxCell>
                <mxCell id="15" value="" style="line;strokeWidth=1;fillColor=none;align=left;verticalAlign=middle;spacingTop=-1;spacingLeft=3;spacingRight=3;rotatable=1;labelPosition=right;points=[];portConstraint=eastwest;strokeColor=inherit;movable=1;resizable=1;deletable=1;editable=1;connectable=1;" parent="14" vertex="1">
                    <mxGeometry y="26" width="120" height="8" as="geometry"/>
                </mxCell>
                <mxCell id="16" value="+Draw():void" style="text;strokeColor=none;fillColor=none;align=left;verticalAlign=top;spacingLeft=4;spacingRight=4;overflow=hidden;rotatable=1;points=[[0,0.5],[1,0.5]];portConstraint=eastwest;movable=1;resizable=1;deletable=1;editable=1;connectable=1;" parent="14" vertex="1">
                    <mxGeometry y="34" width="120" height="26" as="geometry"/>
                </mxCell>
                <mxCell id="17" value="Extends" style="endArrow=block;endSize=16;endFill=0;html=1;entryX=0.103;entryY=1.061;entryDx=0;entryDy=0;entryPerimeter=0;movable=1;resizable=1;rotatable=1;deletable=1;editable=1;connectable=1;" parent="40" target="5" edge="1">
                    <mxGeometry width="160" relative="1" as="geometry">
                        <mxPoint x="214.8" y="210" as="sourcePoint"/>
                        <mxPoint x="214.8" y="100" as="targetPoint"/>
                    </mxGeometry>
                </mxCell>
                <mxCell id="18" value="Extends" style="endArrow=block;endSize=16;endFill=0;html=1;entryX=0.103;entryY=1.061;entryDx=0;entryDy=0;entryPerimeter=0;movable=1;resizable=1;rotatable=1;deletable=1;editable=1;connectable=1;" parent="40" edge="1">
                    <mxGeometry width="160" relative="1" as="geometry">
                        <mxPoint x="329.43" y="208.41000000000003" as="sourcePoint"/>
                        <mxPoint x="329.2999999999999" y="73.99600000000001" as="targetPoint"/>
                    </mxGeometry>
                </mxCell>
                <mxCell id="19" value="Extends" style="endArrow=block;endSize=16;endFill=0;html=1;entryX=0.103;entryY=1.061;entryDx=0;entryDy=0;entryPerimeter=0;movable=1;resizable=1;rotatable=1;deletable=1;editable=1;connectable=1;" parent="40" edge="1">
                    <mxGeometry width="160" relative="1" as="geometry">
                        <mxPoint x="444.93" y="208.41000000000003" as="sourcePoint"/>
                        <mxPoint x="444.7999999999999" y="73.99600000000001" as="targetPoint"/>
                    </mxGeometry>
                </mxCell>
                <mxCell id="26" value="Use" style="endArrow=open;endSize=12;dashed=1;html=1;movable=1;resizable=1;rotatable=1;deletable=1;editable=1;connectable=1;" parent="40" edge="1">
                    <mxGeometry width="160" relative="1" as="geometry">
                        <mxPoint y="50" as="sourcePoint"/>
                        <mxPoint x="184.8" y="50" as="targetPoint"/>
                    </mxGeometry>
                </mxCell>
                <mxCell id="41" value="" style="group;movable=1;resizable=1;rotatable=1;deletable=1;editable=1;connectable=1;" parent="152" vertex="1" connectable="0">
                    <mxGeometry x="717" y="87" width="160" height="100" as="geometry"/>
                </mxCell>
                <mxCell id="27" value="TextView" style="swimlane;fontStyle=1;align=center;verticalAlign=top;childLayout=stackLayout;horizontal=1;startSize=26;horizontalStack=0;resizeParent=1;resizeParentMax=0;resizeLast=0;collapsible=1;marginBottom=0;movable=1;resizable=1;rotatable=1;deletable=1;editable=1;connectable=1;" parent="41" vertex="1">
                    <mxGeometry y="40" width="160" height="60" as="geometry"/>
                </mxCell>
                <mxCell id="28" value="" style="line;strokeWidth=1;fillColor=none;align=left;verticalAlign=middle;spacingTop=-1;spacingLeft=3;spacingRight=3;rotatable=1;labelPosition=right;points=[];portConstraint=eastwest;strokeColor=inherit;movable=1;resizable=1;deletable=1;editable=1;connectable=1;" parent="27" vertex="1">
                    <mxGeometry y="26" width="160" height="8" as="geometry"/>
                </mxCell>
                <mxCell id="29" value="+AdvancedDraw():void" style="text;strokeColor=none;fillColor=none;align=left;verticalAlign=top;spacingLeft=4;spacingRight=4;overflow=hidden;rotatable=1;points=[[0,0.5],[1,0.5]];portConstraint=eastwest;movable=1;resizable=1;deletable=1;editable=1;connectable=1;" parent="27" vertex="1">
                    <mxGeometry y="34" width="160" height="26" as="geometry"/>
                </mxCell>
                <mxCell id="39" value="ThirdParty Lib" style="text;html=1;align=center;verticalAlign=middle;resizable=1;points=[];autosize=1;strokeColor=none;fillColor=none;movable=1;rotatable=1;deletable=1;editable=1;connectable=1;" parent="41" vertex="1">
                    <mxGeometry x="30" width="100" height="30" as="geometry"/>
                </mxCell>
                <mxCell id="25" value="Client" style="html=1;movable=1;resizable=1;rotatable=1;deletable=1;editable=1;connectable=1;" parent="152" vertex="1">
                    <mxGeometry y="30" width="74.8" height="34" as="geometry"/>
                </mxCell>
                <mxCell id="153" value="" style="group;movable=1;resizable=1;rotatable=1;deletable=1;editable=1;connectable=1;" parent="1" vertex="1" connectable="0">
                    <mxGeometry x="40" y="883.23" width="1020" height="421.77" as="geometry"/>
                </mxCell>
                <mxCell id="119" value="Client" style="html=1;container=0;movable=1;resizable=1;rotatable=1;deletable=1;editable=1;connectable=1;" parent="153" vertex="1">
                    <mxGeometry x="25.200000000000003" y="156.76999999999998" width="74.8" height="34" as="geometry"/>
                </mxCell>
                <mxCell id="159" style="edgeStyle=none;html=1;entryX=0.879;entryY=0.111;entryDx=0;entryDy=0;entryPerimeter=0;movable=1;resizable=1;rotatable=1;deletable=1;editable=1;connectable=1;" edge="1" parent="153" source="124" target="158">
                    <mxGeometry relative="1" as="geometry"/>
                </mxCell>
                <mxCell id="124" value="&lt;font color=&quot;#ffff00&quot; style=&quot;font-size: 17px;&quot;&gt;Target&lt;/font&gt;" style="text;html=1;align=center;verticalAlign=middle;resizable=1;points=[];autosize=1;strokeColor=none;fillColor=none;fontSize=36;fontColor=#FFFFFF;container=0;movable=1;rotatable=1;deletable=1;editable=1;connectable=1;" parent="153" vertex="1">
                    <mxGeometry x="530" y="16.770000000000003" width="70" height="60" as="geometry"/>
                </mxCell>
                <mxCell id="135" value="&lt;span style=&quot;font-size: 30px;&quot;&gt;Adapter Design Pattern&lt;/span&gt;" style="text;html=1;align=center;verticalAlign=middle;resizable=1;points=[];autosize=1;strokeColor=#C73500;fillColor=#fa6800;fontSize=13;fontColor=#000000;container=0;movable=1;rotatable=1;deletable=1;editable=1;connectable=1;" parent="153" vertex="1">
                    <mxGeometry width="340" height="50" as="geometry"/>
                </mxCell>
                <mxCell id="98" value="&lt;&lt;abstract&gt;&gt;&#10;Shape" style="swimlane;fontStyle=1;align=center;verticalAlign=top;childLayout=stackLayout;horizontal=1;startSize=40;horizontalStack=0;resizeParent=1;resizeParentMax=0;resizeLast=0;collapsible=1;marginBottom=0;fillColor=#60a917;fontColor=#ffffff;strokeColor=#2D7600;container=0;movable=1;resizable=1;rotatable=1;deletable=1;editable=1;connectable=1;" parent="153" vertex="1">
                    <mxGeometry x="284.8" y="126.76999999999998" width="290" height="74" as="geometry"/>
                </mxCell>
                <mxCell id="113" value="Use" style="endArrow=open;endSize=12;dashed=1;html=1;movable=1;resizable=1;rotatable=1;deletable=1;editable=1;connectable=1;" parent="153" edge="1">
                    <mxGeometry width="160" relative="1" as="geometry">
                        <mxPoint x="100" y="176.76999999999998" as="sourcePoint"/>
                        <mxPoint x="284.8" y="176.76999999999998" as="targetPoint"/>
                    </mxGeometry>
                </mxCell>
                <mxCell id="125" value="TextViewAdapter" style="swimlane;fontStyle=1;align=center;verticalAlign=top;childLayout=stackLayout;horizontal=1;startSize=26;horizontalStack=0;resizeParent=1;resizeParentMax=0;resizeLast=0;collapsible=1;marginBottom=0;fillColor=#fa6800;fontColor=#000000;strokeColor=#C73500;container=0;movable=1;resizable=1;rotatable=1;deletable=1;editable=1;connectable=1;" parent="153" vertex="1">
                    <mxGeometry x="369.8" y="313.53999999999996" width="120" height="60" as="geometry"/>
                </mxCell>
                <mxCell id="132" value="Extends" style="endArrow=block;endSize=16;endFill=0;html=1;dashed=1;fontSize=13;fontColor=#FFFFFF;exitX=0.5;exitY=0;exitDx=0;exitDy=0;movable=1;resizable=1;rotatable=1;deletable=1;editable=1;connectable=1;" parent="153" source="125" target="100" edge="1">
                    <mxGeometry width="160" relative="1" as="geometry">
                        <mxPoint x="600" y="326.77" as="sourcePoint"/>
                        <mxPoint x="760" y="326.77" as="targetPoint"/>
                    </mxGeometry>
                </mxCell>
                <mxCell id="133" style="edgeStyle=none;html=1;entryX=0.002;entryY=-0.03;entryDx=0;entryDy=0;entryPerimeter=0;dashed=1;fontSize=13;fontColor=#FFFFFF;movable=1;resizable=1;rotatable=1;deletable=1;editable=1;connectable=1;" parent="153" source="130" target="127" edge="1">
                    <mxGeometry relative="1" as="geometry"/>
                </mxCell>
                <mxCell id="130" value="&lt;font color=&quot;#ffff00&quot;&gt;&lt;span style=&quot;font-size: 17px;&quot;&gt;Adapter&lt;/span&gt;&lt;/font&gt;" style="text;html=1;align=center;verticalAlign=middle;resizable=1;points=[];autosize=1;strokeColor=none;fillColor=none;fontSize=36;fontColor=#FFFFFF;container=0;movable=1;rotatable=1;deletable=1;editable=1;connectable=1;" parent="153" vertex="1">
                    <mxGeometry x="120" y="326.77" width="80" height="60" as="geometry"/>
                </mxCell>
                <mxCell id="99" value="" style="line;strokeWidth=1;fillColor=none;align=left;verticalAlign=middle;spacingTop=-1;spacingLeft=3;spacingRight=3;rotatable=1;labelPosition=right;points=[];portConstraint=eastwest;strokeColor=inherit;container=0;movable=1;resizable=1;deletable=1;editable=1;connectable=1;" parent="153" vertex="1">
                    <mxGeometry x="284.8" y="166.76999999999998" width="290" height="8" as="geometry"/>
                </mxCell>
                <mxCell id="100" value="+Draw():void" style="text;strokeColor=none;fillColor=none;align=center;verticalAlign=top;spacingLeft=4;spacingRight=4;overflow=hidden;rotatable=1;points=[[0,0.5],[1,0.5]];portConstraint=eastwest;container=0;movable=1;resizable=1;deletable=1;editable=1;connectable=1;" parent="153" vertex="1">
                    <mxGeometry x="284.8" y="174.76999999999998" width="290" height="26" as="geometry"/>
                </mxCell>
                <mxCell id="126" value="" style="line;strokeWidth=1;fillColor=none;align=left;verticalAlign=middle;spacingTop=-1;spacingLeft=3;spacingRight=3;rotatable=1;labelPosition=right;points=[];portConstraint=eastwest;strokeColor=inherit;container=0;movable=1;resizable=1;deletable=1;editable=1;connectable=1;" parent="153" vertex="1">
                    <mxGeometry x="369.8" y="339.53999999999996" width="120" height="8" as="geometry"/>
                </mxCell>
                <mxCell id="127" value="+Draw():void" style="text;strokeColor=none;fillColor=none;align=left;verticalAlign=top;spacingLeft=4;spacingRight=4;overflow=hidden;rotatable=1;points=[[0,0.5],[1,0.5]];portConstraint=eastwest;container=0;movable=1;resizable=1;deletable=1;editable=1;connectable=1;" parent="153" vertex="1">
                    <mxGeometry x="369.8" y="347.53999999999996" width="120" height="26" as="geometry"/>
                </mxCell>
                <mxCell id="131" value="Use" style="endArrow=open;endSize=12;dashed=1;html=1;fontSize=13;fontColor=#FFFFFF;entryX=-0.02;entryY=0.066;entryDx=0;entryDy=0;entryPerimeter=0;exitX=1;exitY=0.5;exitDx=0;exitDy=0;movable=1;resizable=1;rotatable=1;deletable=1;editable=1;connectable=1;" parent="153" source="127" target="117" edge="1">
                    <mxGeometry width="160" relative="1" as="geometry">
                        <mxPoint x="-250" y="336.77" as="sourcePoint"/>
                        <mxPoint x="-90" y="336.77" as="targetPoint"/>
                    </mxGeometry>
                </mxCell>
                <mxCell id="154" value="" style="group;movable=1;resizable=1;rotatable=1;deletable=1;editable=1;connectable=1;" parent="153" vertex="1" connectable="0">
                    <mxGeometry x="680" y="146.77" width="160" height="190" as="geometry"/>
                </mxCell>
                <mxCell id="122" value="Adaptee" style="text;html=1;align=center;verticalAlign=middle;resizable=1;points=[];autosize=1;strokeColor=none;fillColor=none;fontSize=17;fontColor=#FFFF00;container=0;movable=1;rotatable=1;deletable=1;editable=1;connectable=1;" parent="154" vertex="1">
                    <mxGeometry x="30" width="90" height="30" as="geometry"/>
                </mxCell>
                <mxCell id="115" value="TextView" style="swimlane;fontStyle=1;align=center;verticalAlign=top;childLayout=stackLayout;horizontal=1;startSize=26;horizontalStack=0;resizeParent=1;resizeParentMax=0;resizeLast=0;collapsible=1;marginBottom=0;container=0;movable=1;resizable=1;rotatable=1;deletable=1;editable=1;connectable=1;" parent="154" vertex="1">
                    <mxGeometry y="130" width="160" height="60" as="geometry"/>
                </mxCell>
                <mxCell id="118" value="ThirdParty Lib" style="text;html=1;align=center;verticalAlign=middle;resizable=1;points=[];autosize=1;strokeColor=none;fillColor=none;container=0;movable=1;rotatable=1;deletable=1;editable=1;connectable=1;" parent="154" vertex="1">
                    <mxGeometry x="30" y="90" width="100" height="30" as="geometry"/>
                </mxCell>
                <mxCell id="123" style="edgeStyle=none;html=1;entryX=0.461;entryY=0.023;entryDx=0;entryDy=0;entryPerimeter=0;dashed=1;fontSize=17;fontColor=#FFFF00;movable=1;resizable=1;rotatable=1;deletable=1;editable=1;connectable=1;" parent="154" source="122" target="118" edge="1">
                    <mxGeometry relative="1" as="geometry"/>
                </mxCell>
                <mxCell id="116" value="" style="line;strokeWidth=1;fillColor=none;align=left;verticalAlign=middle;spacingTop=-1;spacingLeft=3;spacingRight=3;rotatable=1;labelPosition=right;points=[];portConstraint=eastwest;strokeColor=inherit;container=0;movable=1;resizable=1;deletable=1;editable=1;connectable=1;" parent="154" vertex="1">
                    <mxGeometry y="156" width="160" height="8" as="geometry"/>
                </mxCell>
                <mxCell id="117" value="+AdvancedDraw():void" style="text;strokeColor=none;fillColor=none;align=left;verticalAlign=top;spacingLeft=4;spacingRight=4;overflow=hidden;rotatable=1;points=[[0,0.5],[1,0.5]];portConstraint=eastwest;container=0;movable=1;resizable=1;deletable=1;editable=1;connectable=1;" parent="154" vertex="1">
                    <mxGeometry y="164" width="160" height="26" as="geometry"/>
                </mxCell>
                <mxCell id="158" value="" style="rounded=0;whiteSpace=wrap;html=1;fillColor=none;movable=1;resizable=1;rotatable=1;deletable=1;editable=1;connectable=1;" vertex="1" parent="153">
                    <mxGeometry x="20" y="90" width="620" height="331.77" as="geometry"/>
                </mxCell>
                <mxCell id="155" value="" style="rounded=0;whiteSpace=wrap;html=1;fillColor=none;movable=1;resizable=1;rotatable=1;deletable=1;editable=1;connectable=1;" vertex="1" parent="1">
                    <mxGeometry x="40" y="140" width="710" height="360" as="geometry"/>
                </mxCell>
                <mxCell id="156" value="Our System" style="text;html=1;align=center;verticalAlign=middle;resizable=1;points=[];autosize=1;strokeColor=none;fillColor=none;movable=1;rotatable=1;deletable=1;editable=1;connectable=1;" vertex="1" parent="1">
                    <mxGeometry x="395" y="105" width="90" height="30" as="geometry"/>
                </mxCell>
            </root>
        </mxGraphModel>
    </diagram>
</mxfile>